<svg width="1280" height="720" xmlns="http://www.w3.org/2000/svg" xmlns:xlink="http://www.w3.org/1999/xlink" overflow="hidden"><defs><filter id="fx0" x="-10%" y="-10%" width="120%" height="120%" filterUnits="userSpaceOnUse" primitiveUnits="userSpaceOnUse"><feComponentTransfer color-interpolation-filters="sRGB"><feFuncR type="discrete" tableValues="0 0"/><feFuncG type="discrete" tableValues="0 0"/><feFuncB type="discrete" tableValues="0 0"/><feFuncA type="linear" slope="0.4" intercept="0"/></feComponentTransfer><feGaussianBlur stdDeviation="2.66667 2.66667"/></filter><filter id="fx1" x="-10%" y="-10%" width="120%" height="120%" filterUnits="userSpaceOnUse" primitiveUnits="userSpaceOnUse"><feComponentTransfer color-interpolation-filters="sRGB"><feFuncR type="discrete" tableValues="0 0"/><feFuncG type="discrete" tableValues="0 0"/><feFuncB type="discrete" tableValues="0 0"/><feFuncA type="linear" slope="0.4" intercept="0"/></feComponentTransfer><feGaussianBlur stdDeviation="2.66667 2.66667"/></filter><filter id="fx2" x="-10%" y="-10%" width="120%" height="120%" filterUnits="userSpaceOnUse" primitiveUnits="userSpaceOnUse"><feComponentTransfer color-interpolation-filters="sRGB"><feFuncR type="discrete" tableValues="0 0"/><feFuncG type="discrete" tableValues="0 0"/><feFuncB type="discrete" tableValues="0 0"/><feFuncA type="linear" slope="0.4" intercept="0"/></feComponentTransfer><feGaussianBlur stdDeviation="2.66667 2.66667"/></filter><filter id="fx3" x="-10%" y="-10%" width="120%" height="120%" filterUnits="userSpaceOnUse" primitiveUnits="userSpaceOnUse"><feComponentTransfer color-interpolation-filters="sRGB"><feFuncR type="discrete" tableValues="0 0"/><feFuncG type="discrete" tableValues="0 0"/><feFuncB type="discrete" tableValues="0 0"/><feFuncA type="linear" slope="0.4" intercept="0"/></feComponentTransfer><feGaussianBlur stdDeviation="2.66667 2.66667"/></filter><filter id="fx4" x="-10%" y="-10%" width="120%" height="120%" filterUnits="userSpaceOnUse" primitiveUnits="userSpaceOnUse"><feComponentTransfer color-interpolation-filters="sRGB"><feFuncR type="discrete" tableValues="0 0"/><feFuncG type="discrete" tableValues="0 0"/><feFuncB type="discrete" tableValues="0 0"/><feFuncA type="linear" slope="0.4" intercept="0"/></feComponentTransfer><feGaussianBlur stdDeviation="2.66667 2.66667"/></filter><filter id="fx5" x="-10%" y="-10%" width="120%" height="120%" filterUnits="userSpaceOnUse" primitiveUnits="userSpaceOnUse"><feComponentTransfer color-interpolation-filters="sRGB"><feFuncR type="discrete" tableValues="0 0"/><feFuncG type="discrete" tableValues="0 0"/><feFuncB type="discrete" tableValues="0 0"/><feFuncA type="linear" slope="0.4" intercept="0"/></feComponentTransfer><feGaussianBlur stdDeviation="2.66667 2.66667"/></filter><filter id="fx6" x="-10%" y="-10%" width="120%" height="120%" filterUnits="userSpaceOnUse" primitiveUnits="userSpaceOnUse"><feComponentTransfer color-interpolation-filters="sRGB"><feFuncR type="discrete" tableValues="0 0"/><feFuncG type="discrete" tableValues="0 0"/><feFuncB type="discrete" tableValues="0 0"/><feFuncA type="linear" slope="0.4" intercept="0"/></feComponentTransfer><feGaussianBlur stdDeviation="2.66667 2.66667"/></filter><filter id="fx7" x="-10%" y="-10%" width="120%" height="120%" filterUnits="userSpaceOnUse" primitiveUnits="userSpaceOnUse"><feComponentTransfer color-interpolation-filters="sRGB"><feFuncR type="discrete" tableValues="0 0"/><feFuncG type="discrete" tableValues="0 0"/><feFuncB type="discrete" tableValues="0 0"/><feFuncA type="linear" slope="0.4" intercept="0"/></feComponentTransfer><feGaussianBlur stdDeviation="2.66667 2.66667"/></filter><clipPath id="clip8"><rect x="0" y="0" width="1280" height="720"/></clipPath><clipPath id="clip9"><rect x="-6" y="-4" width="1302" height="744"/></clipPath><clipPath id="clip10"><rect x="0" y="0" width="1294" height="734"/></clipPath><clipPath id="clip11"><rect x="1102" y="670" width="35" height="17"/></clipPath><clipPath id="clip12"><rect x="1102" y="670" width="35" height="17"/></clipPath><clipPath id="clip13"><rect x="1102" y="670" width="35" height="17"/></clipPath><clipPath id="clip14"><rect x="1208" y="60" width="37" height="31"/></clipPath><clipPath id="clip15"><rect x="1208" y="60" width="37" height="31"/></clipPath><clipPath id="clip16"><rect x="1208" y="60" width="37" height="31"/></clipPath><clipPath id="clip17"><path d="M1042.99 10.5001C1037.75 10.5001 1033.5 14.7492 1033.5 19.9908L1033.5 88.0093C1033.5 93.2509 1037.75 97.5001 1042.99 97.5001L1258.01 97.5001C1263.25 97.5001 1267.5 93.2509 1267.5 88.0093L1267.5 19.9908C1267.5 14.7492 1263.25 10.5001 1258.01 10.5001ZM1.90735e-05 1.07288e-05 1280 1.07288e-05 1280 720 1.90735e-05 720Z" fill-rule="evenodd" clip-rule="evenodd"/></clipPath><clipPath id="clip18"><rect x="-2" y="-4" width="258" height="113"/></clipPath><clipPath id="clip19"><rect x="0" y="0" width="253" height="106"/></clipPath><clipPath id="clip20"><path d="M1042.66 189.5C1037.6 189.5 1033.5 193.603 1033.5 198.664L1033.5 264.337C1033.5 269.397 1037.6 273.5 1042.66 273.5L1258.34 273.5C1263.4 273.5 1267.5 269.397 1267.5 264.337L1267.5 198.664C1267.5 193.603 1263.4 189.5 1258.34 189.5ZM1.90735e-05 1.07288e-05 1280 1.07288e-05 1280 720 1.90735e-05 720Z" fill-rule="evenodd" clip-rule="evenodd"/></clipPath><clipPath id="clip21"><rect x="-2" y="-4" width="258" height="110"/></clipPath><clipPath id="clip22"><rect x="0" y="0" width="253" height="103"/></clipPath><clipPath id="clip23"><path d="M1042.77 276.5C1037.65 276.5 1033.5 280.652 1033.5 285.773L1033.5 352.227C1033.5 357.349 1037.65 361.5 1042.77 361.5L1258.23 361.5C1263.35 361.5 1267.5 357.349 1267.5 352.227L1267.5 285.773C1267.5 280.652 1263.35 276.5 1258.23 276.5ZM1.90735e-05 1.07288e-05 1280 1.07288e-05 1280 720 1.90735e-05 720Z" fill-rule="evenodd" clip-rule="evenodd"/></clipPath><clipPath id="clip24"><rect x="-2" y="-4" width="258" height="110"/></clipPath><clipPath id="clip25"><rect x="0" y="0" width="253" height="104"/></clipPath><clipPath id="clip26"><path d="M1043.1 365.5C1037.8 365.5 1033.5 369.798 1033.5 375.1L1033.5 443.9C1033.5 449.202 1037.8 453.5 1043.1 453.5L1257.9 453.5C1263.2 453.5 1267.5 449.202 1267.5 443.9L1267.5 375.1C1267.5 369.798 1263.2 365.5 1257.9 365.5ZM1.90735e-05 1.07288e-05 1280 1.07288e-05 1280 720 1.90735e-05 720Z" fill-rule="evenodd" clip-rule="evenodd"/></clipPath><clipPath id="clip27"><rect x="-2" y="-4" width="258" height="113"/></clipPath><clipPath id="clip28"><rect x="0" y="0" width="253" height="107"/></clipPath><clipPath id="clip29"><path d="M1042.77 457.5C1037.65 457.5 1033.5 461.652 1033.5 466.773L1033.5 533.227C1033.5 538.349 1037.65 542.5 1042.77 542.5L1258.23 542.5C1263.35 542.5 1267.5 538.349 1267.5 533.227L1267.5 466.773C1267.5 461.652 1263.35 457.5 1258.23 457.5ZM1.90735e-05 1.07288e-05 1280 1.07288e-05 1280 720 1.90735e-05 720Z" fill-rule="evenodd" clip-rule="evenodd"/></clipPath><clipPath id="clip30"><rect x="-2" y="-4" width="258" height="110"/></clipPath><clipPath id="clip31"><rect x="0" y="0" width="253" height="104"/></clipPath><clipPath id="clip32"><path d="M1044.1 545.5C1038.8 545.5 1034.5 549.798 1034.5 555.1L1034.5 623.9C1034.5 629.202 1038.8 633.5 1044.1 633.5L1258.9 633.5C1264.2 633.5 1268.5 629.202 1268.5 623.9L1268.5 555.1C1268.5 549.798 1264.2 545.5 1258.9 545.5ZM1.90735e-05 1.07288e-05 1280 1.07288e-05 1280 720 1.90735e-05 720Z" fill-rule="evenodd" clip-rule="evenodd"/></clipPath><clipPath id="clip33"><rect x="-2" y="-4" width="258" height="113"/></clipPath><clipPath id="clip34"><rect x="0" y="0" width="253" height="107"/></clipPath><clipPath id="clip35"><path d="M1042.66 101.5C1037.6 101.5 1033.5 105.603 1033.5 110.664L1033.5 176.337C1033.5 181.397 1037.6 185.5 1042.66 185.5L1258.34 185.5C1263.4 185.5 1267.5 181.397 1267.5 176.337L1267.5 110.664C1267.5 105.603 1263.4 101.5 1258.34 101.5ZM1.90735e-05 1.07288e-05 1280 1.07288e-05 1280 720 1.90735e-05 720Z" fill-rule="evenodd" clip-rule="evenodd"/></clipPath><clipPath id="clip36"><rect x="-2" y="-4" width="258" height="110"/></clipPath><clipPath id="clip37"><rect x="0" y="0" width="253" height="103"/></clipPath></defs><g clip-path="url(#clip8)"><rect x="0" y="0" width="1280" height="720" fill="#FFFFFF"/><g clip-path="url(#clip9)" filter="url(#fx0)" transform="translate(-8 -6)"><g clip-path="url(#clip10)"><rect x="0" y="0" width="1280" height="720" fill="#D3D3D3" transform="matrix(-1 0 0 1 1285.17 8.82843)"/></g></g><rect x="0" y="0" width="1280" height="720" fill="#D3D3D3" transform="matrix(-1 0 0 1 1280 0)"/><rect x="1033" y="649" width="235" height="60" fill="#7C7C7C"/><text fill="#FFFFFF" font-family="Segoe UI Light,Segoe UI Light_MSFontService,sans-serif" font-weight="300" font-size="17" transform="translate(1158.68 686)">Voltar</text><g clip-path="url(#clip11)"><g clip-path="url(#clip12)"><g clip-path="url(#clip13)"><path d="M1135.97 677.731 1104.92 677.731 1111.42 671.318C1111.57 671.177 1111.65 670.983 1111.65 670.779 1111.65 670.349 1111.31 670 1110.88 670 1110.67 669.999 1110.46 670.082 1110.32 670.23L1102.47 677.961C1102.17 678.253 1102.17 678.734 1102.46 679.034 1102.46 679.039 1102.47 679.044 1102.47 679.049L1110.32 686.78C1110.46 686.928 1110.67 687.011 1110.88 687.01 1111.31 687.01 1111.65 686.661 1111.65 686.231 1111.65 686.025 1111.57 685.828 1111.42 685.682L1104.92 679.259 1135.97 679.259C1136.39 679.308 1136.78 679 1136.83 678.573 1136.88 678.145 1136.57 677.76 1136.14 677.711 1136.08 677.704 1136.02 677.704 1135.97 677.711" fill="#FFFFFF" fill-rule="evenodd"/></g></g></g><g clip-path="url(#clip14)"><g clip-path="url(#clip15)"><g clip-path="url(#clip16)"><path d="M1242.7 60.3013 1210.32 60.3013C1209.05 60.2954 1208.02 61.3208 1208.01 62.591 1208.01 62.5939 1208.01 62.5979 1208.01 62.6008L1208.01 65.305C1208.01 66.5752 1209.04 67.6046 1210.31 67.6046 1210.31 67.6046 1210.32 67.6046 1210.32 67.6046L1211.4 67.6046 1223.24 79.4971 1223.24 89.9092C1223.24 90.2181 1223.42 90.4964 1223.71 90.6099 1223.8 90.6494 1223.9 90.6691 1224 90.6691 1224.2 90.6671 1224.39 90.5892 1224.54 90.452L1229.48 85.5173C1229.62 85.3732 1229.7 85.1788 1229.7 84.9745L1229.7 79.5168 1241.55 67.6243 1242.59 67.6243C1243.86 67.6243 1244.89 66.5949 1244.89 65.3248L1244.89 62.6206C1244.9 61.3839 1243.94 60.3595 1242.7 60.3013ZM1228.45 78.6384C1228.31 78.7825 1228.22 78.977 1228.22 79.1812L1228.22 84.639 1224.81 88.0537 1224.81 79.1714C1224.81 78.9671 1224.72 78.7727 1224.58 78.6286L1213.56 67.5947 1239.48 67.5947ZM1243.47 65.305C1243.47 65.7304 1243.13 66.0748 1242.7 66.0748L1210.32 66.0748C1209.89 66.0748 1209.55 65.7304 1209.55 65.305L1209.55 62.6008C1209.55 62.1755 1209.89 61.831 1210.32 61.831L1242.71 61.831C1243.14 61.831 1243.48 62.1755 1243.48 62.6008L1243.48 65.305Z" fill="#BFD6CB"/></g></g></g><g clip-path="url(#clip17)"><g clip-path="url(#clip18)" filter="url(#fx1)" transform="translate(1021 4)"><g clip-path="url(#clip19)"><path d="M9.67163 18.8193C9.67163 13.5776 13.9208 9.32848 19.1624 9.32848L234.181 9.32848C239.422 9.32848 243.672 13.5776 243.672 18.8193L243.672 86.8377C243.672 92.0793 239.422 96.3285 234.181 96.3285L19.1624 96.3285C13.9208 96.3285 9.67163 92.0793 9.67163 86.8377Z" stroke="#B75554" stroke-miterlimit="8" fill="#FFFFFF" fill-rule="evenodd"/></g></g></g><path d="M1033.5 19.9908C1033.5 14.7492 1037.75 10.5001 1042.99 10.5001L1258.01 10.5001C1263.25 10.5001 1267.5 14.7492 1267.5 19.9908L1267.5 88.0093C1267.5 93.2509 1263.25 97.5 1258.01 97.5L1042.99 97.5C1037.75 97.5 1033.5 93.2509 1033.5 88.0093Z" stroke="#B75554" stroke-width="1.33333" stroke-miterlimit="8" fill="#FFFFFF" fill-rule="evenodd"/><g clip-path="url(#clip20)"><g clip-path="url(#clip21)" filter="url(#fx2)" transform="translate(1021 183)"><g clip-path="url(#clip22)"><path d="M9.67163 18.4919C9.67163 13.4311 13.7743 9.32848 18.8351 9.32848L234.508 9.32848C239.569 9.32848 243.672 13.4311 243.672 18.4919L243.672 84.165C243.672 89.2258 239.569 93.3285 234.508 93.3285L18.8351 93.3285C13.7743 93.3285 9.67163 89.2258 9.67163 84.165Z" stroke="#B75554" stroke-miterlimit="8" fill="#FFFFFF" fill-rule="evenodd"/></g></g></g><path d="M1033.5 198.664C1033.5 193.603 1037.6 189.5 1042.66 189.5L1258.34 189.5C1263.4 189.5 1267.5 193.603 1267.5 198.664L1267.5 264.337C1267.5 269.397 1263.4 273.5 1258.34 273.5L1042.66 273.5C1037.6 273.5 1033.5 269.397 1033.5 264.337Z" stroke="#B75554" stroke-width="1.33333" stroke-miterlimit="8" fill="#FFFFFF" fill-rule="evenodd"/><g clip-path="url(#clip23)"><g clip-path="url(#clip24)" filter="url(#fx3)" transform="translate(1021 270)"><g clip-path="url(#clip25)"><path d="M9.67163 18.6013C9.67163 13.48 13.8232 9.32849 18.9444 9.32849L234.399 9.32849C239.52 9.32849 243.672 13.48 243.672 18.6013L243.672 85.0557C243.672 90.1769 239.52 94.3285 234.399 94.3285L18.9444 94.3285C13.8232 94.3285 9.67163 90.1769 9.67163 85.0557Z" stroke="#B75554" stroke-miterlimit="8" fill="#FFFFFF" fill-rule="evenodd"/></g></g></g><path d="M1033.5 285.773C1033.5 280.652 1037.65 276.5 1042.77 276.5L1258.23 276.5C1263.35 276.5 1267.5 280.652 1267.5 285.773L1267.5 352.227C1267.5 357.349 1263.35 361.5 1258.23 361.5L1042.77 361.5C1037.65 361.5 1033.5 357.349 1033.5 352.227Z" stroke="#B75554" stroke-width="1.33333" stroke-miterlimit="8" fill="#FFFFFF" fill-rule="evenodd"/><g clip-path="url(#clip26)"><g clip-path="url(#clip27)" filter="url(#fx4)" transform="translate(1021 359)"><g clip-path="url(#clip28)"><path d="M9.67163 18.9283C9.67163 13.6265 13.9696 9.32849 19.2714 9.32849L234.072 9.32849C239.374 9.32849 243.672 13.6265 243.672 18.9283L243.672 87.7287C243.672 93.0305 239.374 97.3285 234.072 97.3285L19.2714 97.3285C13.9696 97.3285 9.67163 93.0305 9.67163 87.7287Z" stroke="#B75554" stroke-miterlimit="8" fill="#FFFFFF" fill-rule="evenodd"/></g></g></g><path d="M1033.5 375.1C1033.5 369.798 1037.8 365.5 1043.1 365.5L1257.9 365.5C1263.2 365.5 1267.5 369.798 1267.5 375.1L1267.5 443.9C1267.5 449.202 1263.2 453.5 1257.9 453.5L1043.1 453.5C1037.8 453.5 1033.5 449.202 1033.5 443.9Z" stroke="#B75554" stroke-width="1.33333" stroke-miterlimit="8" fill="#FFFFFF" fill-rule="evenodd"/><g clip-path="url(#clip29)"><g clip-path="url(#clip30)" filter="url(#fx5)" transform="translate(1021 451)"><g clip-path="url(#clip31)"><path d="M9.67163 18.6013C9.67163 13.48 13.8232 9.32849 18.9444 9.32849L234.399 9.32849C239.52 9.32849 243.672 13.48 243.672 18.6013L243.672 85.0557C243.672 90.1769 239.52 94.3285 234.399 94.3285L18.9444 94.3285C13.8232 94.3285 9.67163 90.1769 9.67163 85.0557Z" stroke="#B75554" stroke-miterlimit="8" fill="#FFFFFF" fill-rule="evenodd"/></g></g></g><path d="M1033.5 466.773C1033.5 461.652 1037.65 457.5 1042.77 457.5L1258.23 457.5C1263.35 457.5 1267.5 461.652 1267.5 466.773L1267.5 533.227C1267.5 538.349 1263.35 542.5 1258.23 542.5L1042.77 542.5C1037.65 542.5 1033.5 538.349 1033.5 533.227Z" stroke="#B75554" stroke-width="1.33333" stroke-miterlimit="8" fill="#FFFFFF" fill-rule="evenodd"/><g clip-path="url(#clip32)"><g clip-path="url(#clip33)" filter="url(#fx6)" transform="translate(1022 539)"><g clip-path="url(#clip34)"><path d="M9.67163 18.9283C9.67163 13.6265 13.9696 9.32849 19.2714 9.32849L234.072 9.32849C239.374 9.32849 243.672 13.6265 243.672 18.9283L243.672 87.7287C243.672 93.0305 239.374 97.3285 234.072 97.3285L19.2714 97.3285C13.9696 97.3285 9.67163 93.0305 9.67163 87.7287Z" stroke="#B75554" stroke-miterlimit="8" fill="#FFFFFF" fill-rule="evenodd"/></g></g></g><path d="M1034.5 555.1C1034.5 549.798 1038.8 545.5 1044.1 545.5L1258.9 545.5C1264.2 545.5 1268.5 549.798 1268.5 555.1L1268.5 623.9C1268.5 629.202 1264.2 633.5 1258.9 633.5L1044.1 633.5C1038.8 633.5 1034.5 629.202 1034.5 623.9Z" stroke="#B75554" stroke-width="1.33333" stroke-miterlimit="8" fill="#FFFFFF" fill-rule="evenodd"/><text fill="#7F7F7F" font-family="Segoe UI Light,Segoe UI Light_MSFontService,sans-serif" font-weight="300" font-size="16" transform="translate(1086.18 92)">Ano de Construção<tspan font-size="16" x="38.0552" y="173">Quartos</tspan><tspan font-size="16" x="32.2433" y="261">Banheiros</tspan><tspan font-size="16" x="-15.3788" y="353">Quantidade de Andares</tspan><tspan font-size="16" x="-2.62219" y="442">Condição das Casas</tspan><tspan font-size="16" x="31.2946" y="534">Casa Tipo</tspan></text><g clip-path="url(#clip35)"><g clip-path="url(#clip36)" filter="url(#fx7)" transform="translate(1021 95)"><g clip-path="url(#clip37)"><path d="M9.67163 18.4919C9.67163 13.4311 13.7743 9.32848 18.8351 9.32848L234.508 9.32848C239.569 9.32848 243.672 13.4311 243.672 18.4919L243.672 84.165C243.672 89.2258 239.569 93.3285 234.508 93.3285L18.8351 93.3285C13.7743 93.3285 9.67163 89.2258 9.67163 84.165Z" stroke="#B75554" stroke-miterlimit="8" fill="#FFFFFF" fill-rule="evenodd"/></g></g></g><path d="M1033.5 110.664C1033.5 105.603 1037.6 101.5 1042.66 101.5L1258.34 101.5C1263.4 101.5 1267.5 105.603 1267.5 110.664L1267.5 176.337C1267.5 181.397 1263.4 185.5 1258.34 185.5L1042.66 185.5C1037.6 185.5 1033.5 181.397 1033.5 176.337Z" stroke="#B75554" stroke-width="1.33333" stroke-miterlimit="8" fill="#FFFFFF" fill-rule="evenodd"/><text fill="#7F7F7F" font-family="Segoe UI Light,Segoe UI Light_MSFontService,sans-serif" font-weight="300" font-size="16" transform="translate(1132.5 177)">Preç<tspan font-size="16" x="28.8467" y="0">o</tspan></text></g></svg>